<?xml version="1.0" standalone="no"?><!DOCTYPE svg PUBLIC "-//W3C//DTD SVG 1.1//EN" "http://www.w3.org/Graphics/SVG/1.1/DTD/svg11.dtd"><svg t="1600076158755" class="icon" viewBox="0 0 1024 1024" version="1.1" xmlns="http://www.w3.org/2000/svg" p-id="5083" xmlns:xlink="http://www.w3.org/1999/xlink" width="200" height="200"><defs><style type="text/css"></style></defs><path d="M129.5 894.5v-0.703125C92.234375 893.09375 62 862.1562500000001 62 824.890625V130.90625C62.703125 92.93750000000006 92.93750000000006 62 130.90625 62H789.734375c37.96875 0 68.203125 30.9375 68.203125 68.90625v151.171875c0 15.46875-12.656249999999998 28.125-27.421875000000004 28.125-15.46875 0-27.421875000000004-12.656249999999998-27.421875000000004-28.125v-151.171875c0-7.03125-5.625-12.656249999999998-12.656249999999998-12.656249999999998H130.90625c-7.03125 0-12.656249999999998 5.625-12.656249999999998 12.656249999999998V824.890625c0 7.03125 5.625 12.656249999999998 12.656249999999998 12.656249999999998H410.046875c15.46875 0 27.421875000000004 12.656249999999998 27.421875000000004 28.125s-12.656249999999998 28.125-27.421875000000004 28.125H129.5z" p-id="5084"></path><path d="M130.90625 893.09375c-36.5625 0-67.5-30.9375-67.5-68.203125V130.90625C63.40625 93.640625 94.34375 62.703125 130.90625 62.703125H789.734375c37.265625 0 67.5 30.9375 67.5 68.203125v151.171875c0 14.765625-11.953125 27.421875000000004-26.718749999999996 27.421875000000004-14.765625 0-26.718749999999996-11.953125-26.718749999999996-27.421875000000004v-151.171875c0-7.734375-6.328124999999999-14.0625-14.0625-14.0625H130.90625c-7.734375 0-14.0625 6.328124999999999-14.0625 14.0625V824.890625c0 7.734375 6.328124999999999 14.0625 14.0625 14.0625H410.046875c14.765625 0 26.718749999999996 11.953125 26.718749999999996 27.421875000000004 0 14.765625-11.953125 27.421875000000004-26.718749999999996 27.421875000000004l-279.140625-0.703125z" p-id="5085"></path><path d="M509.1875 961.9999999999999c-15.46875 0-27.421875000000004-11.953125-27.421875000000004-27.421875000000004V810.828125c0-15.46875 12.656249999999998-28.125 27.421875000000004-28.125h17.578125l137.109375-194.0625-4.921875-3.515625c-30.9375-21.09375-49.21875-55.54687500000001-49.21875-93.515625 0-62.578125 50.62499999999999-113.20312500000001 112.5-113.20312500000001s112.5 50.62499999999999 112.5 113.20312500000001c0 37.265625-18.28125 72.421875-49.21875 93.515625l-4.921875 3.515625 137.109375 194.0625h17.578125c15.46875 0 27.421875000000004 12.656249999999998 27.421875000000004 28.125v123.75c0 7.03125-2.8125 14.765625-7.734375 19.6875s-11.953125 7.734375-19.6875 7.734375H509.1875z m397.265625-55.54687500000001V838.953125H536.609375v67.5h369.84375zM849.5 782.703125L739.109375 625.90625H705.359375L595.671875 782.703125H849.5zM722.234375 433.953125c-30.9375 0-56.953125 26.015625-56.953125 57.65624999999999s25.312499999999996 57.65624999999999 56.953125 57.65624999999999c30.9375 0 56.953125-26.015625 56.953125-57.65624999999999-0.703125-32.34375-25.312499999999996-57.65624999999999-56.953125-57.65624999999999z" p-id="5086"></path><path d="M509.1875 961.2968750000002c-14.765625 0-26.718749999999996-11.25-26.718749999999996-26.718749999999996V810.828125c0-14.765625 11.953125-27.421875000000004 26.718749999999996-27.421875000000004h18.28125l137.8125-195.46875-5.625-4.21875c-30.9375-21.09375-48.515625-55.54687500000001-48.515625-92.8125 0-61.875 49.921875-111.796875 111.09375000000001-111.796875S833.328125 429.03125 833.328125 490.90625c0 36.5625-18.28125 71.71875-48.515625 92.8125l-5.625 4.21875 137.8125 195.46875h18.28125c14.765625 0 26.718749999999996 11.953125 26.718749999999996 27.421875000000004v123.75c0 7.03125-2.8125 14.0625-7.734375 18.984375-4.921875 4.921875-11.953125 7.734375-18.984375 7.734375H509.1875z m26.718749999999996-54.14062499999999h371.953125v-69.609375H535.90625v69.609375z m57.65624999999999-123.75h258.046875l-112.5-158.203125h-34.453125l-111.09375000000001 158.203125z m128.671875-350.15625c-32.34375 0-57.65624999999999 26.718749999999996-57.65624999999999 58.35937500000001s26.015625 58.35937500000001 57.65624999999999 58.35937500000001 57.65624999999999-26.718749999999996 57.65624999999999-58.35937500000001c0-33.046875-26.015625-58.35937500000001-57.65624999999999-58.35937500000001zM656.140625 315.125H249.734375c-15.46875 0-28.125-12.656249999999998-28.125-28.125s12.656249999999998-28.125 28.125-28.125H656.140625c15.46875 0 28.125 12.656249999999998 28.125 28.125s-11.953125 28.125-28.125 28.125zM424.8125 506.375H249.734375c-15.46875 0-28.125-12.656249999999998-28.125-28.125s12.656249999999998-28.125 28.125-28.125h175.078125c15.46875 0 28.125 12.656249999999998 28.125 28.125s-12.656249999999998 28.125-28.125 28.125z m0 191.25H249.734375c-15.46875 0-28.125-12.656249999999998-28.125-28.125s12.656249999999998-28.125 28.125-28.125h175.078125c15.46875 0 28.125 12.656249999999998 28.125 28.125s-12.656249999999998 28.125-28.125 28.125z" p-id="5087"></path></svg>